<svg xmlns="http://www.w3.org/2000/svg" width="64" height="64" viewBox="0 0 64 64">
  <path d="M32.01,19.769A12.231,12.231,0,1,0,44.241,32,12.212,12.212,0,0,0,32.01,19.769Zm0,19.471A7.24,7.24,0,1,1,39.25,32a7.254,7.254,0,0,1-7.24,7.24ZM47.594,19.269a2.853,2.853,0,1,1-2.852-2.853A2.845,2.845,0,0,1,47.594,19.269Zm8.1,2.9c-.181-3.822-1.054-7.207-3.853-10s-6.174-3.662-10-3.853c-3.938-.224-15.744-.224-19.682,0-3.811.181-7.2,1.054-10,3.843s-3.662,6.174-3.854,9.995c-.223,3.939-.223,15.744,0,19.683.181,3.822,1.054,7.207,3.854,10s6.174,3.662,10,3.853c3.938.224,15.744.224,19.682,0,3.822-.181,7.207-1.054,10-3.853s3.662-6.174,3.853-10c.224-3.939.224-15.733,0-19.672ZM49.441,45.18a7.55,7.55,0,0,1-4.251,4.251c-2.943,1.167-9.927.9-13.18.9s-10.247.259-13.18-.9a7.545,7.545,0,0,1-4.25-4.251c-1.168-2.943-.9-9.927-.9-13.18s-.26-10.247.9-13.18a7.545,7.545,0,0,1,4.25-4.251c2.943-1.167,9.928-.9,13.18-.9s10.247-.259,13.18.9a7.547,7.547,0,0,1,4.251,4.251c1.167,2.943.9,9.927.9,13.18S50.608,42.247,49.441,45.18Z"/>
</svg>
