<svg xmlns="http://www.w3.org/2000/svg" width="64" height="64" viewBox="0 0 64 64">
  <path d="M51.988,21.751c.032.447.032.894.032,1.341,0,13.633-10.377,29.343-29.343,29.343A29.148,29.148,0,0,1,6.84,47.805a21.266,21.266,0,0,0,2.49.128,20.658,20.658,0,0,0,12.8-4.406,10.333,10.333,0,0,1-9.643-7.153,12.972,12.972,0,0,0,1.948.16,10.926,10.926,0,0,0,2.714-.351,10.315,10.315,0,0,1-8.27-10.122v-.128a10.37,10.37,0,0,0,4.662,1.309,10.327,10.327,0,0,1-3.193-13.793A29.315,29.315,0,0,0,31.617,24.241a11.61,11.61,0,0,1-.256-2.363A10.323,10.323,0,0,1,49.21,14.822a20.3,20.3,0,0,0,6.545-2.49,10.282,10.282,0,0,1-4.534,5.683,20.664,20.664,0,0,0,5.939-1.6,22.175,22.175,0,0,1-5.172,5.332Z"/>
</svg>
