<svg xmlns="http://www.w3.org/2000/svg" width="64" height="64" viewBox="0 0 64 64">
  <path d="M28.435,26.4q-.328.6-8.526,15.021a2.557,2.557,0,0,1-2.153,1.52H9.838a1.158,1.158,0,0,1-1.033-1.751L17.2,26.436c.024,0,.024-.012,0-.037L11.857,17.2a1.082,1.082,0,0,1,1.034-1.715h7.918A2.52,2.52,0,0,1,23,16.973ZM55.18,6.465,37.666,37.236v.036L48.807,57.535a1.09,1.09,0,0,1-1.034,1.715h-7.93a2.42,2.42,0,0,1-2.189-1.484L26.416,37.272q.6-1.057,17.611-31.038A2.454,2.454,0,0,1,46.156,4.75h7.99A1.107,1.107,0,0,1,55.18,6.465Z"/>
</svg>
