<svg xmlns="http://www.w3.org/2000/svg" width="512" height="512" viewBox="0 0 512 512">
  <g>
    <path d="M256,239.262,198.305,158.4a16.02,16.02,0,0,1,12.961-25.437H256Z" fill="#dd4071"/>
    <path d="M300.733,132.96H256v106.3L313.694,158.4A16.02,16.02,0,0,0,300.733,132.96Z" fill="#d4145a"/>
    <path d="M256,25.2v85a42.5,42.5,0,0,0,0-85Z" fill="#d4145a"/>
    <path d="M256,25.2v85a42.5,42.5,0,0,1,0-85Z" fill="#dd4071"/>
    <path d="M240.1,250.812l-94.736,29.881a16.021,16.021,0,0,1-20.187-20.187L139,217.962Z" fill="#ffc661"/>
    <path d="M152.827,175.417,139,217.962l101.1,32.85-59.079-79.861A16.021,16.021,0,0,0,152.827,175.417Z" fill="#fbb03b"/>
    <path d="M36.532,184.667l80.818,26.259a42.488,42.488,0,1,0-80.818-26.259Z" fill="#fbb03b"/>
    <path d="M36.532,184.667l80.818,26.259a42.488,42.488,0,0,1-80.818-26.259Z" fill="#ffc661"/>
    <path d="M246.175,269.5l-.856,99.333a16.02,16.02,0,0,1-25.437,12.961L183.692,355.5Z" fill="#73ba45"/>
    <path d="M147.5,329.206l36.19,26.294,62.483-86-94.207,31.509A16.021,16.021,0,0,0,147.5,329.206Z" fill="#3daa37"/>
    <path d="M120.356,442.674l49.958-68.762a42.5,42.5,0,0,0-49.958,68.762Z" fill="#3daa37"/>
    <path d="M120.356,442.674l49.958-68.762a42.5,42.5,0,0,1-49.958,68.762Z" fill="#73ba45"/>
    <path d="M265.824,269.5l94.208,31.509a16.021,16.021,0,0,1,4.466,28.2L328.308,355.5Z" fill="#2b5270"/>
    <path d="M292.117,381.793,328.308,355.5l-62.484-86,.856,99.333A16.02,16.02,0,0,0,292.117,381.793Z" fill="#1b375e"/>
    <path d="M391.643,442.674l-49.958-68.762a42.5,42.5,0,1,0,49.958,68.762Z" fill="#1b375e"/>
    <path d="M391.643,442.674l-49.958-68.762a42.5,42.5,0,0,1,49.958,68.762Z" fill="#2b5270"/>
    <path d="M271.9,250.812l59.08-79.861a16.02,16.02,0,0,1,28.2,4.466L373,217.962Z" fill="#11a2c9"/>
    <path d="M386.82,260.506,373,217.962l-101.1,32.85,94.737,29.881A16.021,16.021,0,0,0,386.82,260.506Z" fill="#0071bc"/>
    <path d="M475.468,184.667,394.65,210.926a42.488,42.488,0,0,0,80.818-26.259Z" fill="#0071bc"/>
    <path d="M475.468,184.667,394.65,210.926a42.488,42.488,0,1,1,80.818-26.259Z" fill="#11a2c9"/>
  </g>
</svg>
