<svg xmlns="http://www.w3.org/2000/svg" width="443.118" height="425.59" viewBox="0 0 443.118 425.59">
  <g>
    <path d="M221.559,214.059l-57.695-80.866a16.021,16.021,0,0,1,12.961-25.437h44.734Z" fill="#fff" opacity="0.66"/>
    <path d="M266.292,107.756H221.559v106.3l57.694-80.865A16.021,16.021,0,0,0,266.292,107.756Z" fill="#fff"/>
    <path d="M221.559,0V85a42.5,42.5,0,1,0,0-85Z" fill="#fff"/>
    <path d="M221.559,0V85a42.5,42.5,0,1,1,0-85Z" fill="#fff" opacity="0.66"/>
    <path d="M205.662,225.608,110.926,255.49A16.021,16.021,0,0,1,90.739,235.3l13.823-42.545Z" fill="#fff" opacity="0.66"/>
    <path d="M118.386,150.214l-13.824,42.544,101.1,32.85-59.079-79.86A16.02,16.02,0,0,0,118.386,150.214Z" fill="#fff"/>
    <path d="M2.091,159.463l80.818,26.26a42.489,42.489,0,0,0-80.818-26.26Z" fill="#fff"/>
    <path d="M2.091,159.463l80.818,26.26a42.489,42.489,0,1,1-80.818-26.26Z" fill="#fff" opacity="0.66"/>
    <path d="M211.734,244.3l-.856,99.333a16.02,16.02,0,0,1-25.437,12.961L149.251,330.3Z" fill="#fff" opacity="0.66"/>
    <path d="M113.061,304l36.19,26.294,62.483-86-94.207,31.509A16.02,16.02,0,0,0,113.061,304Z" fill="#fff"/>
    <path d="M85.915,417.47l49.958-68.761A42.5,42.5,0,1,0,85.915,417.47Z" fill="#fff"/>
    <path d="M85.915,417.47l49.958-68.761A42.5,42.5,0,1,1,85.915,417.47Z" fill="#fff" opacity="0.66"/>
    <path d="M231.383,244.3l94.208,31.509a16.02,16.02,0,0,1,4.466,28.2L293.866,330.3Z" fill="#fff" opacity="0.66"/>
    <path d="M257.676,356.59l36.19-26.294-62.483-86,.856,99.333A16.02,16.02,0,0,0,257.676,356.59Z" fill="#fff"/>
    <path d="M357.2,417.47l-49.958-68.761A42.5,42.5,0,1,0,357.2,417.47Z" fill="#fff"/>
    <path d="M357.2,417.47l-49.958-68.761A42.5,42.5,0,1,1,357.2,417.47Z" fill="#fff" opacity="0.66"/>
    <path d="M237.455,225.608l59.08-79.86a16.02,16.02,0,0,1,28.2,4.466l13.823,42.544Z" fill="#fff" opacity="0.66"/>
    <path d="M352.379,235.3l-13.824-42.545-101.1,32.85,94.737,29.882A16.021,16.021,0,0,0,352.379,235.3Z" fill="#fff"/>
    <path d="M441.027,159.463l-80.818,26.26a42.489,42.489,0,1,0,80.818-26.26Z" fill="#fff"/>
    <path d="M441.027,159.463l-80.818,26.26a42.489,42.489,0,0,1,80.818-26.26Z" fill="#fff" opacity="0.66"/>
  </g>
</svg>
