<svg xmlns="http://www.w3.org/2000/svg" width="1695.768" height="425.59" viewBox="0 0 1695.768 425.59">
  <g>
    <g>
      <path d="M221.559,214.059l-57.695-80.866a16.021,16.021,0,0,1,12.961-25.437h44.734Z" fill="#dd4071"/>
      <path d="M266.292,107.756H221.559v106.3l57.694-80.865A16.021,16.021,0,0,0,266.292,107.756Z" fill="#d4145a"/>
      <path d="M221.559,0V85a42.5,42.5,0,1,0,0-85Z" fill="#d4145a"/>
      <path d="M221.559,0V85a42.5,42.5,0,1,1,0-85Z" fill="#dd4071"/>
      <path d="M205.662,225.608,110.926,255.49A16.021,16.021,0,0,1,90.739,235.3l13.823-42.545Z" fill="#ffc661"/>
      <path d="M118.386,150.214l-13.824,42.544,101.1,32.85-59.079-79.86A16.02,16.02,0,0,0,118.386,150.214Z" fill="#fbb03b"/>
      <path d="M2.091,159.463l80.818,26.26a42.489,42.489,0,0,0-80.818-26.26Z" fill="#fbb03b"/>
      <path d="M2.091,159.463l80.818,26.26a42.489,42.489,0,1,1-80.818-26.26Z" fill="#ffc661"/>
      <path d="M211.734,244.3l-.856,99.333a16.02,16.02,0,0,1-25.437,12.961L149.251,330.3Z" fill="#73ba45"/>
      <path d="M113.061,304l36.19,26.294,62.483-86-94.207,31.509A16.02,16.02,0,0,0,113.061,304Z" fill="#3daa37"/>
      <path d="M85.915,417.47l49.958-68.761A42.5,42.5,0,1,0,85.915,417.47Z" fill="#3daa37"/>
      <path d="M85.915,417.47l49.958-68.761A42.5,42.5,0,1,1,85.915,417.47Z" fill="#73ba45"/>
      <path d="M231.383,244.3l94.208,31.509a16.02,16.02,0,0,1,4.466,28.2L293.866,330.3Z" fill="#2b5270"/>
      <path d="M257.676,356.59l36.19-26.294-62.483-86,.856,99.333A16.02,16.02,0,0,0,257.676,356.59Z" fill="#1b375e"/>
      <path d="M357.2,417.47l-49.958-68.761A42.5,42.5,0,1,0,357.2,417.47Z" fill="#1b375e"/>
      <path d="M357.2,417.47l-49.958-68.761A42.5,42.5,0,1,1,357.2,417.47Z" fill="#2b5270"/>
      <path d="M237.455,225.608l59.08-79.86a16.02,16.02,0,0,1,28.2,4.466l13.823,42.544Z" fill="#11a2c9"/>
      <path d="M352.379,235.3l-13.824-42.545-101.1,32.85,94.737,29.882A16.021,16.021,0,0,0,352.379,235.3Z" fill="#0071bc"/>
      <path d="M441.027,159.463l-80.818,26.26a42.489,42.489,0,1,0,80.818-26.26Z" fill="#0071bc"/>
      <path d="M441.027,159.463l-80.818,26.26a42.489,42.489,0,0,1,80.818-26.26Z" fill="#11a2c9"/>
    </g>
    <g>
      <path d="M605.076,157.055v8.734H547.1V204.64h51.5v8.734H547.1v51.2h-10.24V157.055Z"/>
      <path d="M614.757,189.581a53.014,53.014,0,0,1,9.487-17.844,45.711,45.711,0,0,1,15.887-12.348,50.756,50.756,0,0,1,22.212-4.593q12.648,0,22.135,4.593a45.9,45.9,0,0,1,15.812,12.348,53.014,53.014,0,0,1,9.487,17.844,72.875,72.875,0,0,1,0,42.467,52.157,52.157,0,0,1-9.487,17.768,46.293,46.293,0,0,1-15.812,12.274q-9.486,4.59-22.135,4.592a50.77,50.77,0,0,1-22.212-4.592,46.1,46.1,0,0,1-15.887-12.274,52.157,52.157,0,0,1-9.487-17.768,72.875,72.875,0,0,1,0-42.467Zm9.412,38.475a46.225,46.225,0,0,0,7.227,15.21,36.391,36.391,0,0,0,12.574,10.767q7.681,4.067,18.373,4.065t18.3-4.065a36.611,36.611,0,0,0,12.5-10.767,46.348,46.348,0,0,0,7.229-15.21,65.13,65.13,0,0,0,0-34.559,46.48,46.48,0,0,0-7.229-15.134,36.622,36.622,0,0,0-12.5-10.767q-7.605-4.067-18.3-4.066T643.97,167.6A36.4,36.4,0,0,0,631.4,178.363a46.354,46.354,0,0,0-7.227,15.134,65.13,65.13,0,0,0,0,34.559Z"/>
      <path d="M740.15,157.055V214.88l62.494-57.825H816.5l-48.037,44.423,50.3,63.1H805.506l-44.725-56.019L740.15,227.68v36.894H729.91V157.055Z"/>
      <path d="M838.077,157.055v66.559a52.218,52.218,0,0,0,2.108,15.887,26.577,26.577,0,0,0,6.174,10.692,23.874,23.874,0,0,0,9.939,6.024A43.325,43.325,0,0,0,869.55,258.1a43.879,43.879,0,0,0,13.4-1.881,23.877,23.877,0,0,0,9.938-6.024,26.6,26.6,0,0,0,6.174-10.692,52.247,52.247,0,0,0,2.109-15.887V157.055h10.24v68.818a52.386,52.386,0,0,1-2.334,15.736,34.537,34.537,0,0,1-7.379,13.027,35.067,35.067,0,0,1-12.95,8.808q-7.908,3.237-19.2,3.238-11.146,0-19.05-3.238a35.034,35.034,0,0,1-12.95-8.808,34.457,34.457,0,0,1-7.379-13.027,52.291,52.291,0,0,1-2.334-15.736V157.055Z"/>
      <path d="M939.692,243.04a22.707,22.707,0,0,0,7.454,8.885,31.018,31.018,0,0,0,11.219,4.743,63.978,63.978,0,0,0,13.855,1.43,39.08,39.08,0,0,0,9.185-1.2,31.952,31.952,0,0,0,9.262-3.84,23.608,23.608,0,0,0,7.152-6.776,17.2,17.2,0,0,0,2.861-10.015,14.669,14.669,0,0,0-2.033-7.83,18.608,18.608,0,0,0-5.27-5.572,31.148,31.148,0,0,0-7.153-3.689,70.244,70.244,0,0,0-7.68-2.334L954.6,210.965a71.549,71.549,0,0,1-9.11-3.012,25.889,25.889,0,0,1-7.755-4.818,22.845,22.845,0,0,1-5.346-7.379,25.24,25.24,0,0,1-2.033-10.692,34.081,34.081,0,0,1,1.506-9.186,25.511,25.511,0,0,1,5.647-9.939,32.939,32.939,0,0,1,11.37-7.906q7.227-3.235,18.521-3.237a54.077,54.077,0,0,1,15.21,2.108,37.5,37.5,0,0,1,12.65,6.325,30.45,30.45,0,0,1,11.9,25h-10.24a24.942,24.942,0,0,0-2.786-10.767,24.074,24.074,0,0,0-6.476-7.679,28.367,28.367,0,0,0-9.185-4.669,37.3,37.3,0,0,0-10.917-1.581,45.09,45.09,0,0,0-10.165,1.129,25.452,25.452,0,0,0-8.584,3.614,18.708,18.708,0,0,0-5.948,6.551,20.545,20.545,0,0,0-2.259,10.089,15.55,15.55,0,0,0,1.28,6.551,13.774,13.774,0,0,0,3.539,4.743,18.672,18.672,0,0,0,5.2,3.163,39.2,39.2,0,0,0,6.249,1.957l26.2,6.476a75.641,75.641,0,0,1,10.768,3.689,35.757,35.757,0,0,1,8.885,5.421,22.934,22.934,0,0,1,6.023,7.906,26.538,26.538,0,0,1,2.184,11.294,41.271,41.271,0,0,1-.377,4.818,24.389,24.389,0,0,1-1.807,6.4,31.979,31.979,0,0,1-4.066,6.851,25.588,25.588,0,0,1-7.228,6.249,41.817,41.817,0,0,1-11.37,4.519,66.558,66.558,0,0,1-16.263,1.731,67.834,67.834,0,0,1-17.619-2.183,37.9,37.9,0,0,1-13.853-6.7,29.479,29.479,0,0,1-8.81-11.6q-3.087-7.075-2.636-17.016h10.241Q936.98,237.471,939.692,243.04Z"/>
    </g>
    <g>
      <path d="M548.927,288.5a64.958,64.958,0,0,1,13.026,1.28,31.628,31.628,0,0,1,10.992,4.367,23.222,23.222,0,0,1,7.606,8.132,27.582,27.582,0,0,1,1.5,20.78,24.944,24.944,0,0,1-3.84,7.229,24.443,24.443,0,0,1-5.872,5.5,21.81,21.81,0,0,1-7.606,3.163v.3q10.392,1.354,16.565,8.508t6.174,17.694a42.258,42.258,0,0,1-.452,5.8,28.421,28.421,0,0,1-1.806,6.626,28.041,28.041,0,0,1-3.916,6.7,23.187,23.187,0,0,1-6.852,5.8,41.233,41.233,0,0,1-10.541,4.066,61.8,61.8,0,0,1-14.983,1.581H503.449V288.5Zm0,47.134a35.507,35.507,0,0,0,10.692-1.431,22.236,22.236,0,0,0,7.529-3.915,16.132,16.132,0,0,0,4.518-5.8,16.92,16.92,0,0,0,1.506-7.077q0-20.178-24.245-20.179H513.689v38.4Zm0,51.651a57.488,57.488,0,0,0,10.842-.979,24.807,24.807,0,0,0,9.035-3.539,18.091,18.091,0,0,0,6.174-6.851,22.961,22.961,0,0,0,2.259-10.767q0-10.392-7.3-15.586t-21.006-5.195H513.689v42.917Z"/>
      <path d="M678.973,288.5v8.734h-64v38.852h59.934v8.734H614.973v42.465h64.753v8.734H604.733V288.5Z"/>
      <path d="M742.352,288.5a46.738,46.738,0,0,1,12.575,1.656,30.407,30.407,0,0,1,10.39,5.045,24.324,24.324,0,0,1,7.077,8.734,28.146,28.146,0,0,1,2.636,12.575,30.2,30.2,0,0,1-5.27,17.768q-5.274,7.533-15.662,9.638v.3A23.887,23.887,0,0,1,762.833,347a17.58,17.58,0,0,1,5.646,5.195,21.413,21.413,0,0,1,3.162,7.3,53.571,53.571,0,0,1,1.281,8.96q.147,2.71.3,6.626t.6,7.906a48.7,48.7,0,0,0,1.431,7.529,14.335,14.335,0,0,0,2.635,5.5H766.6a13.1,13.1,0,0,1-1.43-3.689,32.068,32.068,0,0,1-.753-4.518q-.226-2.333-.377-4.592t-.3-3.916q-.3-5.721-.978-11.37a31.2,31.2,0,0,0-2.862-10.089,17.8,17.8,0,0,0-6.325-7.153q-4.143-2.709-11.369-2.409H703.35v47.736H693.11V288.5Zm-.753,51.05a27.432,27.432,0,0,0,8.885-1.431,22.129,22.129,0,0,0,7.379-4.142,20.3,20.3,0,0,0,5.045-6.55,19.78,19.78,0,0,0,1.882-8.809q0-9.939-5.722-15.661T741.6,297.233H703.35v42.316Z"/>
      <path d="M803.25,288.5v66.559a52.218,52.218,0,0,0,2.108,15.887,26.558,26.558,0,0,0,6.174,10.692,23.871,23.871,0,0,0,9.938,6.024,43.3,43.3,0,0,0,13.252,1.882,43.849,43.849,0,0,0,13.4-1.882,23.877,23.877,0,0,0,9.938-6.024,26.593,26.593,0,0,0,6.174-10.692,52.28,52.28,0,0,0,2.108-15.887V288.5h10.241v68.818a52.408,52.408,0,0,1-2.334,15.736,34.537,34.537,0,0,1-7.379,13.027,35.055,35.055,0,0,1-12.95,8.808q-7.908,3.239-19.2,3.239-11.145,0-19.049-3.239a35.034,35.034,0,0,1-12.951-8.808,34.468,34.468,0,0,1-7.378-13.027,52.282,52.282,0,0,1-2.334-15.736V288.5Z"/>
      <path d="M966.26,288.5v8.734H908.283v38.852h51.5v8.734h-51.5v51.2h-10.24V288.5Z"/>
      <path d="M984.464,374.484a22.7,22.7,0,0,0,7.454,8.885,31.01,31.01,0,0,0,11.219,4.743,63.967,63.967,0,0,0,13.854,1.431,39.14,39.14,0,0,0,9.186-1.2,31.973,31.973,0,0,0,9.261-3.84,23.627,23.627,0,0,0,7.153-6.777,17.191,17.191,0,0,0,2.861-10.014,14.676,14.676,0,0,0-2.033-7.83,18.627,18.627,0,0,0-5.271-5.573,31.24,31.24,0,0,0-7.152-3.689,70.48,70.48,0,0,0-7.681-2.334l-23.943-5.873a71.339,71.339,0,0,1-9.11-3.012,25.869,25.869,0,0,1-7.755-4.818,22.819,22.819,0,0,1-5.346-7.379,25.223,25.223,0,0,1-2.033-10.691,34.094,34.094,0,0,1,1.506-9.187,25.5,25.5,0,0,1,5.646-9.938,32.918,32.918,0,0,1,11.37-7.906q7.229-3.237,18.522-3.238a54.119,54.119,0,0,1,15.21,2.108,37.511,37.511,0,0,1,12.649,6.326,30.451,30.451,0,0,1,11.9,25h-10.241A24.938,24.938,0,0,0,1038.9,308.9a24.077,24.077,0,0,0-6.475-7.681,28.389,28.389,0,0,0-9.186-4.668,37.326,37.326,0,0,0-10.917-1.581,45.039,45.039,0,0,0-10.165,1.129,25.419,25.419,0,0,0-8.583,3.615,18.678,18.678,0,0,0-5.948,6.55,20.551,20.551,0,0,0-2.259,10.09,15.561,15.561,0,0,0,1.279,6.55,13.8,13.8,0,0,0,3.539,4.744,18.674,18.674,0,0,0,5.2,3.162,39.2,39.2,0,0,0,6.249,1.957l26.2,6.476a75.8,75.8,0,0,1,10.767,3.689,35.691,35.691,0,0,1,8.885,5.421,22.934,22.934,0,0,1,6.024,7.906,26.539,26.539,0,0,1,2.183,11.294,41.3,41.3,0,0,1-.377,4.819,24.379,24.379,0,0,1-1.806,6.4,32.016,32.016,0,0,1-4.067,6.852,25.628,25.628,0,0,1-7.227,6.249,41.875,41.875,0,0,1-11.37,4.518,66.51,66.51,0,0,1-16.263,1.732,67.833,67.833,0,0,1-17.619-2.184,37.9,37.9,0,0,1-13.854-6.7,29.477,29.477,0,0,1-8.809-11.6q-3.088-7.076-2.636-17.015H981.9Q981.753,368.914,984.464,374.484Z"/>
      <path d="M1118.048,288.5a64.958,64.958,0,0,1,13.026,1.28,31.628,31.628,0,0,1,10.992,4.367,23.222,23.222,0,0,1,7.606,8.132,26.425,26.425,0,0,1-2.335,28.009,24.443,24.443,0,0,1-5.872,5.5,21.81,21.81,0,0,1-7.606,3.163v.3q10.392,1.354,16.566,8.508t6.173,17.694a42.258,42.258,0,0,1-.452,5.8,28.421,28.421,0,0,1-1.806,6.626,28.069,28.069,0,0,1-3.915,6.7,23.2,23.2,0,0,1-6.853,5.8,41.233,41.233,0,0,1-10.541,4.066,61.8,61.8,0,0,1-14.983,1.581H1072.57V288.5Zm0,47.134a35.507,35.507,0,0,0,10.692-1.431,22.226,22.226,0,0,0,7.529-3.915,16.132,16.132,0,0,0,4.518-5.8,16.92,16.92,0,0,0,1.506-7.077q0-20.178-24.245-20.179H1082.81v38.4Zm0,51.651a57.488,57.488,0,0,0,10.842-.979,24.812,24.812,0,0,0,9.036-3.539,18.089,18.089,0,0,0,6.173-6.851,22.961,22.961,0,0,0,2.259-10.767q0-10.392-7.3-15.586t-21.006-5.195H1082.81v42.917Z"/>
      <path d="M1184.35,288.5V396.018h-10.239V288.5Z"/>
      <path d="M1217.191,288.5v98.785h60.236v8.734h-70.476V288.5Z"/>
      <path d="M1326.169,288.5q24.543.6,36.969,13.779t12.423,39.981q0,26.805-12.423,39.981t-36.969,13.778h-37.2V288.5Zm-5.12,98.785A70.559,70.559,0,0,0,1341,384.8a31.937,31.937,0,0,0,13.778-7.907,32.537,32.537,0,0,0,7.982-14,84.4,84.4,0,0,0,0-41.26,32.541,32.541,0,0,0-7.982-14A31.936,31.936,0,0,0,1341,299.718a70.52,70.52,0,0,0-19.953-2.485h-21.835v90.051Z"/>
      <path d="M1402.261,288.5v66.559a52.218,52.218,0,0,0,2.108,15.887,26.558,26.558,0,0,0,6.174,10.692,23.871,23.871,0,0,0,9.938,6.024,43.294,43.294,0,0,0,13.252,1.882,43.853,43.853,0,0,0,13.4-1.882,23.877,23.877,0,0,0,9.938-6.024,26.593,26.593,0,0,0,6.174-10.692,52.28,52.28,0,0,0,2.108-15.887V288.5h10.24v68.818a52.377,52.377,0,0,1-2.334,15.736,34.522,34.522,0,0,1-7.378,13.027,35.059,35.059,0,0,1-12.951,8.808q-7.907,3.239-19.2,3.239-11.145,0-19.05-3.239a35.03,35.03,0,0,1-12.95-8.808,34.484,34.484,0,0,1-7.379-13.027,52.313,52.313,0,0,1-2.334-15.736V288.5Z"/>
      <path d="M1508.425,288.5l62.643,90.955h.3V288.5h10.239V396.018h-11.444l-62.645-90.955h-.3v90.955h-10.241V288.5Z"/>
      <path d="M1688.389,396.018l-1.354-19.576h-.3a36.342,36.342,0,0,1-15.511,16.64,38.643,38.643,0,0,1-10.314,3.84,53.04,53.04,0,0,1-11.37,1.2,50.769,50.769,0,0,1-22.211-4.593,46.084,46.084,0,0,1-15.887-12.273,52.161,52.161,0,0,1-9.487-17.769,72.871,72.871,0,0,1,0-42.466,53.028,53.028,0,0,1,9.487-17.845,45.69,45.69,0,0,1,15.887-12.348,50.755,50.755,0,0,1,22.211-4.593A55.28,55.28,0,0,1,1665.5,288.5a40.234,40.234,0,0,1,23.341,17.92,43.149,43.149,0,0,1,5.571,15.51h-10.239a24.2,24.2,0,0,0-3.087-9.412,32.808,32.808,0,0,0-7.078-8.658,36.468,36.468,0,0,0-24.471-8.885q-10.693,0-18.371,4.066a36.414,36.414,0,0,0-12.574,10.767,46.379,46.379,0,0,0-7.229,15.134,65.134,65.134,0,0,0,0,34.56,46.258,46.258,0,0,0,7.229,15.21,36.39,36.39,0,0,0,12.574,10.766q7.68,4.067,18.371,4.066a40.749,40.749,0,0,0,15.888-2.937,33.115,33.115,0,0,0,11.821-8.207,34.386,34.386,0,0,0,7.227-12.5,47.16,47.16,0,0,0,2.259-15.811H1650.14v-8.735h45.628v54.663Z"/>
    </g>
  </g>
</svg>
